<mxfile host="app.diagrams.net" modified="2024-01-17T10:41:34.463Z" agent="Mozilla/5.0 (Windows NT 10.0; Win64; x64) AppleWebKit/537.36 (KHTML, like Gecko) Chrome/120.0.0.0 Safari/537.36 Edg/120.0.0.0" etag="fT4_teHx1dK198HzAydB" version="22.1.20" type="github">
  <diagram name="Page-1" id="BYcBNG4YvLvScm9maxEv">
    <mxGraphModel dx="786" dy="477" grid="1" gridSize="10" guides="1" tooltips="1" connect="1" arrows="1" fold="1" page="1" pageScale="1" pageWidth="1169" pageHeight="827" math="0" shadow="0">
      <root>
        <mxCell id="0" />
        <mxCell id="1" parent="0" />
        <mxCell id="JytJVqoOl2gL6ffJoUcV-11" style="edgeStyle=orthogonalEdgeStyle;rounded=0;orthogonalLoop=1;jettySize=auto;html=1;exitX=0.5;exitY=0.5;exitDx=0;exitDy=20;exitPerimeter=0;entryX=0.5;entryY=0;entryDx=0;entryDy=0;" edge="1" parent="1" source="JytJVqoOl2gL6ffJoUcV-1" target="JytJVqoOl2gL6ffJoUcV-3">
          <mxGeometry relative="1" as="geometry" />
        </mxCell>
        <mxCell id="JytJVqoOl2gL6ffJoUcV-1" value="Start" style="html=1;dashed=0;whiteSpace=wrap;shape=mxgraph.dfd.start;fontSize=11;" vertex="1" parent="1">
          <mxGeometry x="97.5" y="60" width="160" height="40" as="geometry" />
        </mxCell>
        <mxCell id="JytJVqoOl2gL6ffJoUcV-12" style="edgeStyle=orthogonalEdgeStyle;rounded=0;orthogonalLoop=1;jettySize=auto;html=1;exitX=0.5;exitY=1;exitDx=0;exitDy=0;entryX=0.5;entryY=0;entryDx=0;entryDy=0;" edge="1" parent="1" source="JytJVqoOl2gL6ffJoUcV-3" target="JytJVqoOl2gL6ffJoUcV-5">
          <mxGeometry relative="1" as="geometry" />
        </mxCell>
        <mxCell id="JytJVqoOl2gL6ffJoUcV-3" value="&lt;font style=&quot;font-size: 11px;&quot;&gt;User Exits ZBA_COND_DATE_TO_DEFAULT&lt;/font&gt;" style="shape=process;whiteSpace=wrap;html=1;backgroundOutline=1;fontSize=11;size=0.041666666666666664;" vertex="1" parent="1">
          <mxGeometry x="80" y="120" width="200" height="50" as="geometry" />
        </mxCell>
        <mxCell id="JytJVqoOl2gL6ffJoUcV-13" style="edgeStyle=orthogonalEdgeStyle;rounded=0;orthogonalLoop=1;jettySize=auto;html=1;exitX=0.5;exitY=1;exitDx=0;exitDy=0;entryX=0.5;entryY=0;entryDx=0;entryDy=0;" edge="1" parent="1" source="JytJVqoOl2gL6ffJoUcV-5" target="JytJVqoOl2gL6ffJoUcV-7">
          <mxGeometry relative="1" as="geometry" />
        </mxCell>
        <mxCell id="JytJVqoOl2gL6ffJoUcV-5" value="Check SY-TCODE &lt;br style=&quot;font-size: 11px;&quot;&gt;IF EQ &#39;ME11&#39; OR &#39;ME12&#39; &lt;br&gt;OR &#39;ME13&#39;." style="rhombus;whiteSpace=wrap;html=1;fontSize=11;" vertex="1" parent="1">
          <mxGeometry x="101.25" y="190" width="157.5" height="100" as="geometry" />
        </mxCell>
        <mxCell id="JytJVqoOl2gL6ffJoUcV-14" style="edgeStyle=orthogonalEdgeStyle;rounded=0;orthogonalLoop=1;jettySize=auto;html=1;exitX=0.5;exitY=1;exitDx=0;exitDy=0;entryX=0.5;entryY=0;entryDx=0;entryDy=0;" edge="1" parent="1" source="JytJVqoOl2gL6ffJoUcV-7" target="JytJVqoOl2gL6ffJoUcV-9">
          <mxGeometry relative="1" as="geometry" />
        </mxCell>
        <mxCell id="JytJVqoOl2gL6ffJoUcV-28" style="edgeStyle=orthogonalEdgeStyle;rounded=0;orthogonalLoop=1;jettySize=auto;html=1;exitX=0;exitY=0.5;exitDx=0;exitDy=0;" edge="1" parent="1" source="JytJVqoOl2gL6ffJoUcV-7">
          <mxGeometry relative="1" as="geometry">
            <mxPoint x="60" y="360" as="targetPoint" />
          </mxGeometry>
        </mxCell>
        <mxCell id="JytJVqoOl2gL6ffJoUcV-29" value="N" style="edgeLabel;html=1;align=center;verticalAlign=middle;resizable=0;points=[];" vertex="1" connectable="0" parent="JytJVqoOl2gL6ffJoUcV-28">
          <mxGeometry x="-0.1396" relative="1" as="geometry">
            <mxPoint x="1" as="offset" />
          </mxGeometry>
        </mxCell>
        <mxCell id="JytJVqoOl2gL6ffJoUcV-7" value="Check VENDOR&amp;nbsp;&lt;br&gt;IF NP &#39;VEN-*&#39; &lt;br&gt;AND NP &#39;STO-*&#39;.&amp;nbsp;&amp;nbsp;" style="rhombus;whiteSpace=wrap;html=1;fontSize=11;" vertex="1" parent="1">
          <mxGeometry x="102.5" y="310" width="155" height="100" as="geometry" />
        </mxCell>
        <mxCell id="JytJVqoOl2gL6ffJoUcV-15" style="edgeStyle=orthogonalEdgeStyle;rounded=0;orthogonalLoop=1;jettySize=auto;html=1;exitX=0.5;exitY=1;exitDx=0;exitDy=0;entryX=0.5;entryY=0;entryDx=0;entryDy=0;" edge="1" parent="1" source="JytJVqoOl2gL6ffJoUcV-9">
          <mxGeometry relative="1" as="geometry">
            <mxPoint x="180" y="500" as="targetPoint" />
          </mxGeometry>
        </mxCell>
        <mxCell id="JytJVqoOl2gL6ffJoUcV-9" value="&lt;font style=&quot;font-size: 11px;&quot;&gt;Call FM&amp;nbsp;&lt;br&gt;&lt;/font&gt;RP_CALC_DATE_IN_INTERVAL&lt;span style=&quot;font-size: 11px; text-align: start;&quot;&gt;&lt;/span&gt;" style="shape=process;whiteSpace=wrap;html=1;backgroundOutline=1;size=0.038461538461538464;fontSize=11;" vertex="1" parent="1">
          <mxGeometry x="80" y="430" width="200" height="50" as="geometry" />
        </mxCell>
        <mxCell id="JytJVqoOl2gL6ffJoUcV-17" value="End" style="html=1;dashed=0;whiteSpace=wrap;shape=mxgraph.dfd.start;fontSize=11;" vertex="1" parent="1">
          <mxGeometry x="100" y="570" width="160" height="40" as="geometry" />
        </mxCell>
        <mxCell id="JytJVqoOl2gL6ffJoUcV-18" style="edgeStyle=orthogonalEdgeStyle;rounded=0;orthogonalLoop=1;jettySize=auto;html=1;exitX=0.5;exitY=1;exitDx=0;exitDy=0;entryX=0.5;entryY=0.5;entryDx=0;entryDy=-20;entryPerimeter=0;" edge="1" parent="1" target="JytJVqoOl2gL6ffJoUcV-17">
          <mxGeometry relative="1" as="geometry">
            <mxPoint x="180" y="550" as="sourcePoint" />
          </mxGeometry>
        </mxCell>
        <mxCell id="JytJVqoOl2gL6ffJoUcV-19" style="edgeStyle=orthogonalEdgeStyle;rounded=0;orthogonalLoop=1;jettySize=auto;html=1;exitX=0;exitY=0.5;exitDx=0;exitDy=0;entryX=0;entryY=0.5;entryDx=0;entryDy=0;entryPerimeter=0;" edge="1" parent="1" source="JytJVqoOl2gL6ffJoUcV-5" target="JytJVqoOl2gL6ffJoUcV-17">
          <mxGeometry relative="1" as="geometry">
            <Array as="points">
              <mxPoint x="60" y="240" />
              <mxPoint x="60" y="590" />
            </Array>
          </mxGeometry>
        </mxCell>
        <mxCell id="JytJVqoOl2gL6ffJoUcV-21" value="N" style="edgeLabel;html=1;align=center;verticalAlign=middle;resizable=0;points=[];" vertex="1" connectable="0" parent="JytJVqoOl2gL6ffJoUcV-19">
          <mxGeometry x="-0.9185" relative="1" as="geometry">
            <mxPoint as="offset" />
          </mxGeometry>
        </mxCell>
        <mxCell id="JytJVqoOl2gL6ffJoUcV-26" value="Y" style="text;html=1;align=center;verticalAlign=middle;resizable=0;points=[];autosize=1;strokeColor=none;fillColor=none;" vertex="1" parent="1">
          <mxGeometry x="145" y="288" width="30" height="30" as="geometry" />
        </mxCell>
        <mxCell id="JytJVqoOl2gL6ffJoUcV-27" value="Y" style="text;html=1;align=center;verticalAlign=middle;resizable=0;points=[];autosize=1;strokeColor=none;fillColor=none;" vertex="1" parent="1">
          <mxGeometry x="145" y="400" width="30" height="30" as="geometry" />
        </mxCell>
        <mxCell id="JytJVqoOl2gL6ffJoUcV-30" value="Return New Validity End Date" style="shape=manualInput;whiteSpace=wrap;html=1;fontSize=11;size=13;" vertex="1" parent="1">
          <mxGeometry x="100" y="500" width="160" height="50" as="geometry" />
        </mxCell>
      </root>
    </mxGraphModel>
  </diagram>
</mxfile>
